<svg width="20" height="20" viewBox="0 0 20 20" fill="none" xmlns="http://www.w3.org/2000/svg">
<mask id="mask0_22_80" style="mask-type:luminance" maskUnits="userSpaceOnUse" x="0" y="0" width="19" height="20">
<path d="M18.5416 8.3335H9.99998V11.8752H14.9166C14.4583 14.1252 12.5416 15.4168 9.99998 15.4168C6.99998 15.4168 4.58331 13.0002 4.58331 10.0002C4.58331 7.00016 6.99998 4.5835 9.99998 4.5835C11.2916 4.5835 12.4583 5.04183 13.375 5.79183L16.0416 3.12516C14.4166 1.7085 12.3333 0.833496 9.99998 0.833496C4.91665 0.833496 0.833313 4.91683 0.833313 10.0002C0.833313 15.0835 4.91665 19.1668 9.99998 19.1668C14.5833 19.1668 18.75 15.8335 18.75 10.0002C18.75 9.4585 18.6666 8.87516 18.5416 8.3335Z" fill="white"/>
</mask>
<g mask="url(#mask0_22_80)">
<path d="M0 15.4168V4.5835L7.08333 10.0002L0 15.4168Z" fill="#FBBC05"/>
</g>
<mask id="mask1_22_80" style="mask-type:luminance" maskUnits="userSpaceOnUse" x="0" y="0" width="19" height="20">
<path d="M18.5416 8.3335H9.99998V11.8752H14.9166C14.4583 14.1252 12.5416 15.4168 9.99998 15.4168C6.99998 15.4168 4.58331 13.0002 4.58331 10.0002C4.58331 7.00016 6.99998 4.5835 9.99998 4.5835C11.2916 4.5835 12.4583 5.04183 13.375 5.79183L16.0416 3.12516C14.4166 1.7085 12.3333 0.833496 9.99998 0.833496C4.91665 0.833496 0.833313 4.91683 0.833313 10.0002C0.833313 15.0835 4.91665 19.1668 9.99998 19.1668C14.5833 19.1668 18.75 15.8335 18.75 10.0002C18.75 9.4585 18.6666 8.87516 18.5416 8.3335Z" fill="white"/>
</mask>
<g mask="url(#mask1_22_80)">
<path d="M0 4.58333L7.08333 10L10 7.45833L20 5.83333V0H0V4.58333Z" fill="#EA4335"/>
</g>
<mask id="mask2_22_80" style="mask-type:luminance" maskUnits="userSpaceOnUse" x="0" y="0" width="19" height="20">
<path d="M18.5416 8.3335H9.99998V11.8752H14.9166C14.4583 14.1252 12.5416 15.4168 9.99998 15.4168C6.99998 15.4168 4.58331 13.0002 4.58331 10.0002C4.58331 7.00016 6.99998 4.5835 9.99998 4.5835C11.2916 4.5835 12.4583 5.04183 13.375 5.79183L16.0416 3.12516C14.4166 1.7085 12.3333 0.833496 9.99998 0.833496C4.91665 0.833496 0.833313 4.91683 0.833313 10.0002C0.833313 15.0835 4.91665 19.1668 9.99998 19.1668C14.5833 19.1668 18.75 15.8335 18.75 10.0002C18.75 9.4585 18.6666 8.87516 18.5416 8.3335Z" fill="white"/>
</mask>
<g mask="url(#mask2_22_80)">
<path d="M0 15.4167L12.5 5.83333L15.7917 6.25L20 0V20H0V15.4167Z" fill="#34A853"/>
</g>
<mask id="mask3_22_80" style="mask-type:luminance" maskUnits="userSpaceOnUse" x="0" y="0" width="19" height="20">
<path d="M18.5416 8.3335H9.99998V11.8752H14.9166C14.4583 14.1252 12.5416 15.4168 9.99998 15.4168C6.99998 15.4168 4.58331 13.0002 4.58331 10.0002C4.58331 7.00016 6.99998 4.5835 9.99998 4.5835C11.2916 4.5835 12.4583 5.04183 13.375 5.79183L16.0416 3.12516C14.4166 1.7085 12.3333 0.833496 9.99998 0.833496C4.91665 0.833496 0.833313 4.91683 0.833313 10.0002C0.833313 15.0835 4.91665 19.1668 9.99998 19.1668C14.5833 19.1668 18.75 15.8335 18.75 10.0002C18.75 9.4585 18.6666 8.87516 18.5416 8.3335Z" fill="white"/>
</mask>
<g mask="url(#mask3_22_80)">
<path d="M20 20.0002L7.08329 10.0002L5.41663 8.75016L20 4.5835V20.0002Z" fill="#4285F4"/>
</g>
</svg>
