<svg width="115" height="36" viewBox="0 0 115 36" fill="none" xmlns="http://www.w3.org/2000/svg">
<g clip-path="url(#clip0_22_15)">
<path d="M14.375 12.8219V16.6775H23.6129C23.3425 18.8294 22.6215 20.3985 21.4949 21.5193C20.143 22.8643 18.0251 24.3437 14.375 24.3437C8.6971 24.3437 4.23589 19.7709 4.23589 14.122C4.23589 8.47322 8.65204 3.85554 14.375 3.85554C17.4393 3.85554 19.6924 5.066 21.3597 6.59029L24.0635 3.90037C21.7653 1.70361 18.656 0 14.375 0C6.57915 0 0 6.32129 0 14.0772C0 21.8331 6.57915 28.1544 14.375 28.1544C18.6109 28.1544 21.7653 26.7646 24.2437 24.2092C26.8123 21.6538 27.5784 18.1121 27.5784 15.198C27.5784 14.3014 27.5333 13.4944 27.3531 12.7771L14.375 12.8219Z" fill="#4285F4"/>
<path d="M39.1595 9.68359C34.1125 9.68359 29.9667 13.4943 29.9667 18.7845C29.9667 24.0298 34.0674 27.8853 39.1595 27.8853C44.2516 27.8853 48.3523 24.0298 48.3523 18.7845C48.3072 13.4943 44.2065 9.68359 39.1595 9.68359ZM39.1595 24.2988C36.4107 24.2988 34.0223 22.0124 34.0223 18.7845C34.0223 15.5117 36.4107 13.2701 39.1595 13.2701C41.9083 13.2701 44.2966 15.5117 44.2966 18.7845C44.2966 22.0124 41.9083 24.2988 39.1595 24.2988Z" fill="#EA4335"/>
<path d="M84.087 11.701H83.9518C83.0505 10.6251 81.3382 9.68359 79.1301 9.68359C74.5788 9.68359 70.5682 13.6288 70.5682 18.7845C70.5682 23.8953 74.5337 27.8853 79.1301 27.8853C81.3382 27.8853 83.0505 26.899 83.9518 25.8231H84.087V27.0784C84.087 30.5304 82.1944 32.4134 79.2202 32.4134C76.7868 32.4134 75.2547 30.6649 74.6238 29.1855L71.154 30.6201C72.1454 33.041 74.8041 35.9999 79.2653 35.9999C83.9518 35.9999 87.9624 33.2652 87.9624 26.5404V10.1767H84.1771V11.701H84.087ZM79.4906 24.2988C76.7418 24.2988 74.6238 21.9675 74.6238 18.7845C74.6238 15.5566 76.7418 13.2701 79.4906 13.2701C82.2394 13.2701 84.3574 15.6014 84.3574 18.8293C84.4024 21.9675 82.2394 24.2988 79.4906 24.2988Z" fill="#4285F4"/>
<path d="M59.6179 9.68359C54.5709 9.68359 50.4252 13.4943 50.4252 18.7845C50.4252 24.0298 54.5259 27.8853 59.6179 27.8853C64.71 27.8853 68.8107 24.0298 68.8107 18.7845C68.7657 13.4943 64.665 9.68359 59.6179 9.68359ZM59.6179 24.2988C56.8691 24.2988 54.4808 22.0124 54.4808 18.7845C54.4808 15.5117 56.8691 13.2701 59.6179 13.2701C62.3668 13.2701 64.7551 15.5117 64.7551 18.7845C64.7551 22.0124 62.3668 24.2988 59.6179 24.2988Z" fill="#FBBC05"/>
<path d="M91.0717 0.358887H95.0372V27.8408H91.0717V0.358887Z" fill="#34A853"/>
<path d="M107.204 24.2989C105.176 24.2989 103.734 23.3574 102.788 21.5641L115 16.543L114.594 15.5118C113.828 13.4944 111.53 9.72852 106.799 9.72852C102.112 9.72852 98.1916 13.4047 98.1916 18.8294C98.1916 23.9402 102.067 27.9303 107.249 27.9303C111.44 27.9303 113.873 25.3748 114.865 23.8954L111.755 21.8331C110.674 23.2677 109.232 24.2989 107.204 24.2989ZM106.934 13.0909C108.556 13.0909 109.953 13.9427 110.404 15.1083L102.157 18.5156C102.112 14.66 104.861 13.0909 106.934 13.0909Z" fill="#EA4335"/>
</g>
<defs>
<clipPath id="clip0_22_15">
<rect width="115" height="36" fill="white"/>
</clipPath>
</defs>
</svg>
