<svg width="19" height="18" viewBox="0 0 19 18" fill="none" xmlns="http://www.w3.org/2000/svg">
<path d="M13 1H5C2.79086 1 1 2.79086 1 5V13C1 15.2091 2.79086 17 5 17H13C15.2091 17 17 15.2091 17 13V5C17 2.79086 15.2091 1 13 1Z" stroke="white" stroke-linecap="round" stroke-linejoin="round"/>
<path d="M11.9676 8.55995C12.0601 9.18414 11.9535 9.82161 11.6629 10.3817C11.3722 10.9418 10.9124 11.396 10.3488 11.6797C9.78513 11.9634 9.14639 12.0622 8.52339 11.9619C7.9004 11.8617 7.32487 11.5675 6.87868 11.1213C6.43249 10.6751 6.13835 10.0996 6.0381 9.47661C5.93786 8.85362 6.0366 8.21487 6.3203 7.65123C6.60399 7.08759 7.05819 6.62776 7.61829 6.33713C8.17839 6.04651 8.81587 5.93989 9.44005 6.03245C10.0767 6.12687 10.6662 6.42355 11.1213 6.87868C11.5765 7.33381 11.8731 7.92326 11.9676 8.55995Z" stroke="white" stroke-linecap="round" stroke-linejoin="round"/>
<g filter="url(#filter0_d_52_127)">
<path d="M14 4H14.0001" stroke="#E0DDDD" stroke-linecap="round" stroke-linejoin="round"/>
</g>
<defs>
<filter id="filter0_d_52_127" x="9.5" y="3.5" width="9.00009" height="9" filterUnits="userSpaceOnUse" color-interpolation-filters="sRGB">
<feFlood flood-opacity="0" result="BackgroundImageFix"/>
<feColorMatrix in="SourceAlpha" type="matrix" values="0 0 0 0 0 0 0 0 0 0 0 0 0 0 0 0 0 0 127 0" result="hardAlpha"/>
<feOffset dy="4"/>
<feGaussianBlur stdDeviation="2"/>
<feComposite in2="hardAlpha" operator="out"/>
<feColorMatrix type="matrix" values="0 0 0 0 0 0 0 0 0 0 0 0 0 0 0 0 0 0 0.25 0"/>
<feBlend mode="normal" in2="BackgroundImageFix" result="effect1_dropShadow_52_127"/>
<feBlend mode="normal" in="SourceGraphic" in2="effect1_dropShadow_52_127" result="shape"/>
</filter>
</defs>
</svg>
