<svg width="236" height="30" viewBox="0 0 236 30" fill="none" xmlns="http://www.w3.org/2000/svg">
<g clip-path="url(#clip0_108_46)">
<path d="M118 11.25L115.686 8.93555C115.973 8.19727 116.125 7.40039 116.125 6.5625C116.125 2.93555 113.189 0 109.562 0C105.936 0 103 2.93555 103 6.5625C103 10.1895 105.936 13.125 109.562 13.125C110.4 13.125 111.197 12.9668 111.936 12.6855L114.25 15L111.936 17.3145C111.197 17.0273 110.4 16.875 109.562 16.875C105.936 16.875 103 19.8105 103 23.4375C103 27.0645 105.936 30 109.562 30C113.189 30 116.125 27.0645 116.125 23.4375C116.125 22.5996 115.967 21.8027 115.686 21.0645L132.25 4.5C132.666 4.08398 132.666 3.41602 132.25 3C130.592 1.3418 127.908 1.3418 126.25 3L118 11.25ZM119.324 20.0742L126.25 27C127.908 28.6582 130.592 28.6582 132.25 27C132.666 26.584 132.666 25.916 132.25 25.5L123.074 16.3242L119.324 20.0742ZM106.75 6.5625C106.75 6.19316 106.823 5.82743 106.964 5.4862C107.105 5.14497 107.313 4.83493 107.574 4.57376C107.835 4.3126 108.145 4.10543 108.486 3.96409C108.827 3.82275 109.193 3.75 109.562 3.75C109.932 3.75 110.298 3.82275 110.639 3.96409C110.98 4.10543 111.29 4.3126 111.551 4.57376C111.812 4.83493 112.02 5.14497 112.161 5.4862C112.302 5.82743 112.375 6.19316 112.375 6.5625C112.375 6.93184 112.302 7.29757 112.161 7.6388C112.02 7.98003 111.812 8.29007 111.551 8.55124C111.29 8.8124 110.98 9.01957 110.639 9.16091C110.298 9.30225 109.932 9.375 109.562 9.375C109.193 9.375 108.827 9.30225 108.486 9.16091C108.145 9.01957 107.835 8.8124 107.574 8.55124C107.313 8.29007 107.105 7.98003 106.964 7.6388C106.823 7.29757 106.75 6.93184 106.75 6.5625ZM109.562 20.625C109.932 20.625 110.298 20.6977 110.639 20.8391C110.98 20.9804 111.29 21.1876 111.551 21.4488C111.812 21.7099 112.02 22.02 112.161 22.3612C112.302 22.7024 112.375 23.0682 112.375 23.4375C112.375 23.8068 112.302 24.1726 112.161 24.5138C112.02 24.855 111.812 25.1651 111.551 25.4262C111.29 25.6874 110.98 25.8946 110.639 26.0359C110.298 26.1773 109.932 26.25 109.562 26.25C109.193 26.25 108.827 26.1773 108.486 26.0359C108.145 25.8946 107.835 25.6874 107.574 25.4262C107.313 25.1651 107.105 24.855 106.964 24.5138C106.823 24.1726 106.75 23.8068 106.75 23.4375C106.75 23.0682 106.823 22.7024 106.964 22.3612C107.105 22.02 107.313 21.7099 107.574 21.4488C107.835 21.1876 108.145 20.9804 108.486 20.8391C108.827 20.6977 109.193 20.625 109.562 20.625Z" fill="#A66841"/>
</g>
<rect x="133" y="12" width="103" height="3" fill="#A66841"/>
<rect y="12" width="103" height="3" fill="#A66841"/>
<defs>
<clipPath id="clip0_108_46">
<rect width="30" height="30" fill="white" transform="translate(103)"/>
</clipPath>
</defs>
</svg>
