<svg width="166" height="31" viewBox="0 0 166 31" fill="none" xmlns="http://www.w3.org/2000/svg">
<path d="M15 0L19.635 10.1507L30 11.7884L22.5 19.6852L24.27 30.8412L15 25.5713L5.73 30.8412L7.5 19.6852L0 11.7884L10.365 10.1507L15 0Z" fill="#F5BB0B"/>
<path d="M49 0L53.635 10.1507L64 11.7884L56.5 19.6852L58.27 30.8412L49 25.5713L39.73 30.8412L41.5 19.6852L34 11.7884L44.365 10.1507L49 0Z" fill="#F5BB0B"/>
<path d="M83 0L87.635 10.1507L98 11.7884L90.5 19.6852L92.27 30.8412L83 25.5713L73.73 30.8412L75.5 19.6852L68 11.7884L78.365 10.1507L83 0Z" fill="#F5BB0B"/>
<path d="M117 0L121.635 10.1507L132 11.7884L124.5 19.6852L126.27 30.8412L117 25.5713L107.73 30.8412L109.5 19.6852L102 11.7884L112.365 10.1507L117 0Z" fill="#F5BB0B"/>
<path d="M151 0L155.635 10.1507L166 11.7884L158.5 19.6852L160.27 30.8412L151 25.5713L141.73 30.8412L143.5 19.6852L136 11.7884L146.365 10.1507L151 0Z" fill="#F5BB0B"/>
</svg>
