<svg width="18" height="18" viewBox="0 0 18 18" fill="none" xmlns="http://www.w3.org/2000/svg">
<path d="M16.8503 7.25484C16.4091 7.33628 15.0316 7.46659 13.1285 6.46972C13.0996 6.45395 13.0661 6.44508 13.0317 6.44404C12.9973 6.443 12.9633 6.44983 12.9331 6.46382C12.9028 6.47781 12.8776 6.49845 12.86 6.52356C12.8424 6.54867 12.8331 6.57733 12.8331 6.60655C12.8331 6.60655 12.8331 9.86428 12.8331 10.9491C12.8331 11.8222 12.8906 17.5949 6.24891 16.9498C6.24891 16.9498 1 16.6241 1 11.63C1 11.63 1.0729 7.1343 7.30023 6.74337C7.32687 6.74159 7.35365 6.74446 7.37894 6.7518C7.40422 6.75915 7.42746 6.77081 7.44723 6.78607C7.46701 6.80133 7.48289 6.81987 7.4939 6.84054C7.50491 6.86121 7.51082 6.88358 7.51126 6.90626V9.19644C7.51257 9.2353 7.49679 9.27317 7.467 9.30268C7.4372 9.3322 7.39553 9.35123 7.35011 9.35607C6.62109 9.44403 3.68968 9.94246 4.01582 12.2131C4.10066 12.7931 4.43777 13.3251 4.96098 13.7049C5.48419 14.0846 6.15569 14.2846 6.84363 14.2655C6.84363 14.2655 9.52948 14.5196 9.65226 11.3335V1.16289C9.65325 1.11995 9.67377 1.079 9.70954 1.04863C9.74531 1.01826 9.79354 1.00083 9.84411 1H12.4839C12.5287 1.00014 12.572 1.01357 12.6063 1.03796C12.6407 1.06235 12.6639 1.09618 12.6719 1.13357C12.8101 1.78511 13.6005 4.33266 16.8158 4.49228C16.8647 4.49394 16.911 4.51138 16.9452 4.54106C16.9794 4.57073 16.999 4.61038 17 4.65191V7.09847C17.0007 7.13533 16.9861 7.17123 16.9588 7.19984C16.9314 7.22845 16.893 7.24793 16.8503 7.25484Z" stroke="#E0DDDD" stroke-linecap="round"/>
</svg>
